<?xml version="1.0" standalone="no"?>
<!DOCTYPE svg PUBLIC "-//W3C//DTD SVG 20010904//EN"
 "http://www.w3.org/TR/2001/REC-SVG-20010904/DTD/svg10.dtd">
<svg version="1.0" xmlns="http://www.w3.org/2000/svg"
 width="64.000000pt" height="64.000000pt" viewBox="0 0 64.000000 64.000000"
 preserveAspectRatio="xMidYMid meet">
<metadata>
Created by potrace 1.14, written by Peter Selinger 2001-2017
</metadata>
<g transform="translate(0.000000,64.000000) scale(0.100000,-0.100000)"
fill="#000000" stroke="none">
<path d="M256 579 c-82 -20 -140 -75 -190 -178 -18 -39 -23 -58 -15 -67 7 -9
6 -12 -8 -9 -29 4 -36 -6 -15 -21 11 -7 27 -37 37 -66 22 -67 59 -113 128
-161 52 -36 57 -37 118 -32 35 3 80 10 100 15 66 18 139 89 165 160 9 25 25
64 35 87 16 38 16 42 1 46 -10 2 -25 26 -34 53 -45 129 -189 206 -322 173z
m116 -37 c9 -7 22 -10 30 -7 20 8 93 -47 122 -92 43 -66 52 -133 30 -206 -4
-14 -13 -18 -31 -14 -34 6 -54 -17 -50 -59 5 -37 -4 -49 -46 -59 -15 -4 -27
-11 -27 -16 0 -15 -47 -10 -64 6 -19 20 -28 19 -24 -2 2 -15 -3 -17 -27 -14
-62 7 -125 53 -168 124 -17 27 -17 27 9 27 27 0 99 38 90 47 -3 3 -21 -5 -40
-17 -45 -27 -73 -19 -84 23 -19 70 13 163 64 185 17 8 34 24 40 35 18 41 141
68 176 39z m153 -342 c8 -13 -12 -50 -27 -50 -9 0 -9 3 0 12 17 17 15 33 -3
18 -18 -15 -20 1 -3 18 15 15 25 15 33 2z"/>
<path d="M415 510 c17 -19 17 -21 -1 -42 -10 -13 -12 -17 -4 -10 8 6 24 12 37
12 31 0 29 14 -6 39 -37 27 -49 27 -26 1z"/>
</g>
</svg>
